<svg version="1" xmlns="http://www.w3.org/2000/svg" width="20" height="20" viewBox="0 0 20 20"><path fill="#CBCBCD" d="M11.3 2.1c-.3 0-.4.1-.7.3L5.3 5.7H1.1c-.3 0-.5.1-.7.3-.2.2-.3.5-.3.7v6c0 .3.1.5.3.7.2.2.4.3.7.3h4.2l5.3 3.3c.2.2.4.2.7.3.3 0 .5-.1.7-.3.2-.2.3-.4.3-.7V3c0-.3-.1-.5-.3-.7-.2-.1-.5-.2-.7-.2zM16.3 11.5c.3-.6.5-1.2.5-1.9s-.2-1.3-.5-1.9C16 7 15.5 6.6 15 6.4c-.1 0-.2-.1-.3-.1-.2 0-.4.1-.5.3-.2.2-.2.4-.2.6 0 .2 0 .4.1.5l.3.3c.1.1.3.2.4.3.1.1.3.3.3.5.1.2.1.5.1.8 0 .3 0 .6-.1.8-.1.2-.2.4-.3.5-.1.1-.3.2-.4.3-.1.1-.3.2-.3.3-.1.1-.1.3-.1.5s.1.4.2.6c.2.2.3.3.5.3.1 0 .2 0 .3-.1.5-.3 1-.7 1.3-1.3z"/><path fill="#CBCBCD" d="M16.2 3.2c-.1 0-.2-.1-.3-.1-.2 0-.4.1-.5.3-.2.2-.2.4-.2.6 0 .4.2.6.5.8.3.2.6.4.8.6.6.5 1.1 1.1 1.4 1.8.3.7.5 1.5.5 2.3 0 .8-.2 1.6-.5 2.3-.3.7-.8 1.3-1.4 1.8-.2.1-.5.3-.9.6-.3.2-.5.4-.5.8 0 .2.1.4.2.6.2.2.3.3.6.3.1 0 .2 0 .3-.1 1.1-.5 2-1.4 2.7-2.6.7-1.2 1-2.4 1-3.8s-.3-2.7-1-3.8c-.7-1-1.6-1.9-2.7-2.4z"/></svg>