<svg xmlns="http://www.w3.org/2000/svg" width="118" height="27" viewBox="0 0 118 27"><g fill="#FFF"><path d="M57.3 7.1l-4.8 12.6c-.1.4-.4.6-.8.6h-2.1c-.4 0-.7-.2-.8-.6L44 7.1h2.5l3.2 9.2c.2.5.4 1.3.8 2.3h.4l.8-2.3 3.2-9.2h2.4zM62.3 20.2H60V7.1h2.3v13.1zM72.6 14.9l-3.8-.9c-1.1-.3-1.8-.7-2.3-1.2-.5-.6-.7-1.4-.7-2.5 0-1.5.4-2.3 1.2-2.8.8-.5 2.1-.5 4-.5h5.5v1.7h-5.2c-1.3 0-2.2.1-2.6.2-.4.2-.6.6-.6 1.4 0 .6.1 1.1.4 1.3s.8.4 1.5.6l3.8.9c1.1.3 1.9.7 2.3 1.2.5.5.7 1.3.7 2.4 0 1.5-.4 2.3-1.2 2.8-.8.5-2 .7-4.4.7h-5v-1.8h4.5c1.5 0 2.6-.1 3.1-.4.5-.2.8-.6.8-1.4 0-.6-.2-1-.5-1.2-.2-.1-.8-.3-1.5-.5zM82.6 7.1v1.8c1.8-1.4 3.5-2.2 5.1-2.2 1.8 0 2.9.8 3.3 2.3 1.8-1.5 3.5-2.3 5.3-2.3 1.1 0 2 .3 2.6.9s.9 1.5.9 2.7v9.9h-2.3V11c0-.8-.2-1.4-.5-1.8-.3-.4-.8-.6-1.6-.6-.6 0-1.2.1-1.8.4-.6.3-1.4.8-2.5 1.6v9.5H89V11c0-.8-.2-1.4-.5-1.8-.3-.4-.9-.5-1.6-.5-.6 0-1.2.1-1.8.4-.6.3-1.4.8-2.5 1.6v9.5h-2.3V7.1h2.3zM111.9 14.8h-6.1c.1 1.5.5 2.5 1.1 3s1.6.6 3.1.6h4.6v1.8h-4.9s-3.9-.2-4.8-1.3c-1-1.1-1.4-2.8-1.4-5.4 0-2.5.5-4.3 1.4-5.3s2.5-1.5 4.6-1.5c2 0 3.4.4 4.3 1.1s1.3 1.8 1.3 3.2c-.1 2.5-1.1 3.8-3.2 3.8zm-6.2-1.8h5.6c1 0 1.4-.6 1.4-1.9 0-.8-.3-1.4-.8-1.8-.5-.4-1.3-.5-2.5-.5-1.4 0-2.3.3-2.9.9-.5.5-.7 1.6-.8 3.3z"/></g><path fill="#F05E4E" d="M32.9 17.2l5.6-2.9c-1.7-1.1-10.4-5.3-13.8-1.7l-.7.7c3.6.6 6.7 2 8.9 3.9z"/><path fill="#B23232" d="M30.2 15.4l4.8-2.7c-4.4-1.8-6.8-1.3-9.7.5-.2.1-.3.2-.5.3 2.1.4 3.9 1 5.4 1.9z"/><path fill="#6CC294" d="M19.7 13.2c3.5-.2 6.8.5 9.5 1.7 0 0 1.6-1.3 4-2.9s3.9-2.8 3.9-2.8c-1.2-.9-4.3-1.6-6.1-1.9-5.6-.8-10.2 2-12 6 .2-.1.5-.1.7-.1z"/><path fill="#4B9F71" d="M19.7 13.2c2.7-.1 5.3.2 7.5.9l2.2-7c-5.4-.2-10.1 2.5-11.6 6.1v.1c.6 0 1.2-.1 1.9-.1z"/><path fill="#F3DE3C" d="M19.7 13.2c2.1-.1 4.2.1 6.1.5l3.1-11.4c-2.4-.2-5 .1-7.6.8-7 2.1-11.2 7.3-10 12.2 2.4-1.2 5.3-2 8.4-2.1z"/><path fill="#CDAF31" d="M19.7 13.2h2.7l-3.8-9c-5.3 2.5-8.3 7-7.3 11.2 2.4-1.3 5.3-2.1 8.4-2.2z"/><path fill="#19ABD6" d="M19.7 13.2h1.1c-.3-.7-1.2-2.9-2.7-5.4-1.8-3.1-2.9-5.1-2.9-5.1-2.7 1-5.9 2.7-7.8 4.6-4.1 4.1-4.5 9.2-1.5 12.9 2.3-3.9 7.6-6.7 13.8-7z"/><path fill="#FFF" d="M24.2 18.4l-3.5 2.4 1.2-3.7c-.3-.1-.7-.1-1.2-.1-2.5 0-4.5 1.7-4.5 3.9 0 2.1 2 3.9 4.5 3.9s4.5-1.7 4.5-3.9c0-1-.4-1.8-1-2.5z"/></svg>