<svg xmlns="http://www.w3.org/2000/svg" width="78.4" height="47" viewBox="0 0 78.4 47"><path fill="#19ABD6" d="M37.1 14.4c-.6-.3-1.2-.5-1.8-.7-.1 0-.3-.1-.4-.1l.1-.1c2.7-1.8 4.4-3.1 4.4-3.1-1.4-1-4.8-1.8-6.9-2.1-.9-.1-1.8-.2-2.6-.1-.4 0-.8 0-1.2.1l1.5-5.4c-2.7-.2-5.6.1-8.4.9-1.1.3-2.1.7-3 1.2-.3 0-.5.1-.8.3-.1 0-.2.1-.3.1-.4.2-.7.4-1.1.6-1-1.8-1.7-2.9-1.7-2.9-3 1.1-6.6 3-8.7 5.1-4.6 4.6-5 10.2-1.7 14.4 1.3-2.1 3.5-4 6.1-5.4 0 0 .1 0 .2-.1 2.1-1 4.4-1.8 7-2.1.7-.1 1.4-.2 2.1-.2h1.9c.5 0 1 0 1.5.1h.2c1.1.1 2.2.3 3.2.5h.1c.4.1.7.2 1.1.3.2.1.4.1.6.2.1 0 .2.1.2.1.1 0 .2.1.3.1.4.1.8.3 1.2.5 0 0 .1 0 .1.1.1 0 .2.1.3.1.3.2.7.3 1 .5 1.1.6 2.2 1.3 3 2.1l6.2-3.2c-.5-.3-1.9-1.1-3.7-1.8z"/><path fill="#F05E4E" d="M34.7 19.5l6.3-3.2c-1.9-1.2-11.6-5.9-15.4-1.9l-.8.8c4 .5 7.5 2.1 9.9 4.3z"/><path fill="#B23232" d="M31.7 17.4l5.4-3c-4.9-2-7.6-1.4-10.8.5-.2.1-.4.2-.6.4 2.3.4 4.3 1.2 6 2.1z"/><path fill="#6CC294" d="M20 14.9c3.9-.2 7.6.5 10.6 1.9 0 0 1.8-1.4 4.5-3.3 2.7-1.8 4.4-3.1 4.4-3.1-1.4-1-4.8-1.8-6.9-2.1-6.3-.9-11.4 2.2-13.4 6.7.2 0 .5 0 .8-.1z"/><path fill="#4B9F71" d="M20 14.9c3-.2 5.9.2 8.4 1l2.5-7.8c-6-.2-11.2 2.8-13 6.9v.1c.6 0 1.3-.1 2.1-.2z"/><path fill="#F3DE3C" d="M20 14.9c2.4-.1 4.7.1 6.8.6l3.5-12.7c-2.7-.2-5.6.1-8.4.9C14 6.1 9.4 11.9 10.7 17.3c2.6-1.3 5.8-2.2 9.3-2.4z"/><path fill="#CDAF31" d="M20 14.9c1-.1 2.1 0 3.1 0l-4.3-10c-6 2.8-9.2 7.8-8.1 12.5 2.6-1.4 5.8-2.3 9.3-2.5z"/><path fill="#19ABD6" d="M20 14.9h1.2c-.3-.8-1.3-3.2-3-6-2-3.5-3.3-5.7-3.3-5.7-3 1.1-6.6 3-8.7 5.1-4.6 4.6-5 10.2-1.7 14.4 2.7-4.2 8.5-7.4 15.5-7.8z"/><path fill="#166272" d="M17.2 30.8l-4.9 12.8c-.1.4-.4.6-.8.6H9.3c-.4 0-.7-.2-.8-.6L3.6 30.8h2.5l3.3 9.4c.2.5.5 1.3.8 2.3h.4l.8-2.3 3.3-9.4h2.5zM22.3 44.2H20V30.8h2.3v13.4zM32.8 38.8l-3.9-.9c-1.1-.3-1.9-.7-2.3-1.2-.5-.6-.7-1.4-.7-2.5 0-1.5.4-2.4 1.2-2.9.8-.5 2.1-.5 4.1-.5h5.6v1.7h-5.3c-1.4 0-2.3.1-2.7.2-.4.2-.6.6-.6 1.4 0 .6.1 1.1.4 1.3s.8.4 1.5.6l3.9.9c1.1.3 1.9.7 2.4 1.2s.7 1.4.7 2.5c0 1.6-.4 2.4-1.3 2.9s-2 .7-4.5.7h-5.1v-1.8h4.6c1.6 0 2.6-.1 3.1-.4.5-.2.8-.6.8-1.4 0-.6-.2-1-.5-1.3-.1-.1-.6-.3-1.4-.5zM43 30.8v1.9c1.8-1.5 3.5-2.2 5.2-2.2 1.9 0 3 .8 3.4 2.4 1.8-1.6 3.6-2.4 5.4-2.4 1.2 0 2 .3 2.7.9.6.6.9 1.5.9 2.8v10.1h-2.3v-9.4c0-.8-.2-1.4-.5-1.8-.3-.4-.9-.6-1.6-.6-.6 0-1.3.1-1.9.4-.6.3-1.4.8-2.5 1.7v9.7h-2.3v-9.4c0-.8-.2-1.5-.5-1.8-.3-.4-.9-.6-1.6-.6-.6 0-1.3.1-1.9.4-.6.3-1.4.8-2.6 1.6v9.7h-2.3V30.8H43zM72.9 38.7h-6.3c.1 1.5.5 2.6 1.1 3.1s1.7.7 3.1.7h4.7v1.8h-5s-4-.2-4.9-1.3c-1-1.1-1.5-2.9-1.5-5.5s.5-4.4 1.4-5.4c1-1 2.5-1.6 4.7-1.6 2 0 3.5.4 4.4 1.1s1.4 1.8 1.4 3.3c.1 2.5-.9 3.8-3.1 3.8zm-6.3-1.8h5.7c1 0 1.5-.7 1.5-2 0-.9-.3-1.5-.8-1.8-.5-.4-1.3-.6-2.5-.6-1.4 0-2.4.3-2.9.9-.7.6-1 1.8-1 3.5zM25 20.8l-3.9 2.7 1.4-4.1c-.4-.1-.9-.2-1.4-.2-2.8 0-5 1.9-5 4.3s2.2 4.3 5 4.3 5-1.9 5-4.3c0-1-.4-1.9-1.1-2.7z"/></svg>