<svg height="256" viewBox="0 0 32 32" width="256" xmlns="http://www.w3.org/2000/svg"><title/><path d="M8.007 10C6.347 10 5 11.342 5 13v7c0 1.657 1.336 3 3.007 3h16.986C26.653 23 28 21.658 28 20v-7c0-1.657-1.336-3-3.007-3H8.007zM21 16v-2h4v-1h-5v7h1v-3h3v-1h-3zM8 15v5h1v-3h1.995C12.102 17 13 16.112 13 15c0-1.105-.894-2-2.005-2H8v2zm1-1v2h2c.553 0 1-.444 1-1 0-.552-.443-1-1-1H9zm5-1v7h2.995C18.102 20 19 19.113 19 17.994v-2.988C19 13.898 18.106 13 16.995 13H14zm1 1v5h2c.553 0 1-.444 1-1v-3c0-.552-.443-1-1-1h-2z" fill="#e12300" fill-rule="evenodd"/></svg>